<?xml version="1.0" encoding="utf-8"?>
<!-- Generator: Adobe Illustrator 12.0.1, SVG Export Plug-In . SVG Version: 6.00 Build 51448)  -->
<!DOCTYPE svg PUBLIC "-//W3C//DTD SVG 1.0//EN" "http://www.w3.org/TR/2001/REC-SVG-20010904/DTD/svg10.dtd" [
	<!ENTITY ns_flows "http://ns.adobe.com/Flows/1.0/">
	<!ENTITY ns_extend "http://ns.adobe.com/Extensibility/1.0/">
	<!ENTITY ns_ai "http://ns.adobe.com/AdobeIllustrator/10.0/">
	<!ENTITY ns_graphs "http://ns.adobe.com/Graphs/1.0/">
	<!ENTITY ns_svg "http://www.w3.org/2000/svg">
	<!ENTITY ns_xlink "http://www.w3.org/1999/xlink">
]>
<svg  version="1.0" id="Ebene_1" xmlns:x="&ns_extend;" xmlns:i="&ns_ai;" xmlns:graph="&ns_graphs;"
	 xmlns="&ns_svg;" xmlns:xlink="&ns_xlink;" xmlns:a="http://ns.adobe.com/AdobeSVGViewerExtensions/3.0/"
	 width="181.244" height="33.693" viewBox="0 0 181.244 33.693" overflow="visible" enable-background="new 0 0 181.244 33.693"
	 xml:space="preserve">
<polygon fill-rule="evenodd" clip-rule="evenodd" fill="#FFFFFF" points="0,0 181.244,0 181.244,33.693 0,33.693 0,0 "/>
<path fill-rule="evenodd" clip-rule="evenodd" fill="#F49F0E" d="M13.527,9.614c-0.743,1.663-1.928,2.61-3.257,2.61
	c-0.6,0-1.131-0.17-1.928-0.606l-0.791-0.416l-0.299-0.17l0.054-0.129c0.715,0.32,0.961,0.416,1.172,0.511
	c0.3,0.129,0.62,0.225,1.151,0.395l0.075-0.17L5.603,9.88l-0.15,0.395c-0.341-0.15-0.47-0.184-1.152-0.429L4.165,10.22
	c1.608,0.552,2.419,0.968,4.579,2.269c2.644,1.663,4.36,2.398,7.788,3.305l0.524-0.661c-1.642,0.075-3.645-0.756-4.837-1.962
	c1.417-0.756,2.609-1.042,4.347-1.042c0.436,0,0.735,0.021,1.288,0.062l0.416-0.416c-0.927-0.096-1.417-0.116-2.099-0.116
	c-0.797,0-1.417,0.034-1.983,0.116l0.171-0.286c0.661-0.055,1.056-0.075,1.696-0.075c0.852,0,1.288,0.021,2.418,0.15l0.402-0.416
	c-0.756-0.116-2.01-0.191-3.271-0.191c-0.327,0-0.532,0-0.947,0.041l0.17-0.266c0.45-0.041,0.736-0.041,1.077-0.041
	c1.097,0,2.119,0.082,3.175,0.252l0.416-0.422c-1.247-0.204-2.494-0.32-3.57-0.32c-0.341,0-0.457,0-0.797,0.02l0.15-0.245
	c0.436-0.021,0.606-0.021,0.797-0.021c1.076,0,2.248,0.096,3.645,0.32l0.416-0.429c-1.846-0.286-3.059-0.402-4.21-0.402
	C15.073,9.443,14.297,9.505,13.527,9.614z M12.369,2.412c-5.383,0-9.621,4.184-9.621,9.491c0,5.199,4.238,9.409,9.437,9.409
	c5.253,0,9.464-4.19,9.464-9.43C21.648,6.705,17.452,2.412,12.369,2.412z M12.185,20.468c-4.749,0-8.585-3.843-8.585-8.605
	c0-4.701,3.856-8.599,8.524-8.599c4.878,0,8.673,3.802,8.673,8.64C20.797,16.646,16.947,20.468,12.185,20.468z M42.567,14.829
	h-5.286V5.228h-3.075V17.58h8.361V14.829z M46.504,17.796c0.971,0,2.104-0.54,2.589-1.457h0.054v1.241h2.859V8.572h-2.913v4.801
	c0,1.619-0.971,2.05-1.564,2.05c-0.917,0-1.403-0.431-1.403-1.618V8.572h-2.805v5.394C43.322,16.339,44.023,17.796,46.504,17.796z
	 M56.699,17.58v-7.12h1.672V8.572h-1.672V8.194c0-0.809,0.377-0.917,1.024-0.917c0.216,0,0.486,0.054,0.755,0.054v-2.05
	c-0.432-0.054-0.917-0.054-1.349-0.054c-2.373,0-3.236,0.81-3.236,3.344h-1.349v1.888h1.349v7.12H56.699z M60.097,14.505
	c0,2.427,0.647,3.183,3.021,3.183c0.486,0,1.025-0.108,1.511-0.108v-2.158c-0.216,0-0.485,0.054-0.701,0.054
	c-0.594,0-1.025-0.162-1.025-0.917V10.46h1.726V8.572h-1.726V5.875h-2.805v2.697h-1.402v1.888h1.402V14.505z M71.263,8.302
	c-1.025,0-2.158,0.54-2.589,1.457H68.62V5.174h-2.805v12.352h2.805v-4.908c0-0.971,0.485-1.942,1.51-1.942
	c1.51,0,1.402,1.294,1.402,2.535v4.315h2.805v-5.771C74.337,10.46,74.122,8.302,71.263,8.302z M81.134,16.771
	c0,0.27,0.054,0.54,0.162,0.809h2.805c-0.324-0.701-0.324-1.51-0.324-2.266v-3.938c0-2.589-1.996-3.075-3.991-3.075
	c-0.971,0-1.942,0.162-2.697,0.647c-0.755,0.432-1.294,1.187-1.349,2.427h2.643c0.108-0.809,0.593-1.187,1.349-1.187
	c0.593,0,1.349,0.27,1.349,0.971c0,0.593-0.27,0.755-0.701,0.863c-1.942,0.431-4.962,0.215-4.962,3.128
	c0,1.833,1.294,2.697,2.913,2.697C79.354,17.85,80.379,17.526,81.134,16.771z M79.354,13.858c0.593-0.162,1.294-0.216,1.726-0.486
	c0.054,1.888-0.377,2.643-1.726,2.643c-0.593,0-1.133-0.27-1.133-1.024C78.221,14.29,78.707,14.02,79.354,13.858z M88.039,12.618
	c0-0.971,0.485-1.942,1.51-1.942c1.51,0,1.51,1.402,1.51,2.643l0.054,4.261h2.805v-5.664c0-1.294-0.432-3.667-3.237-3.667
	c-1.024,0-2.158,0.593-2.697,1.51V8.518h-2.751v9.008h2.805V12.618z M101.092,12.186c-1.295-0.324-3.182-0.485-3.182-1.294
	c0-0.647,0.754-0.701,1.186-0.701c0.377,0,0.648,0.054,0.918,0.215c0.215,0.162,0.322,0.432,0.322,0.81h2.59
	c-0.107-2.374-2.049-2.913-3.938-2.913c-1.672,0-3.883,0.593-3.883,2.751c0,2.427,2.211,2.481,3.99,2.967
	c0.486,0.108,1.35,0.27,1.35,0.971c0,0.701-0.756,0.971-1.295,0.971c-0.432,0-0.809-0.108-1.08-0.324
	c-0.27-0.27-0.432-0.593-0.432-1.025h-2.695c0.107,2.535,2.156,3.236,4.207,3.236c1.941,0,4.1-0.809,4.1-3.236
	C103.25,13.858,102.818,12.563,101.092,12.186z M112.852,11.323c0-2.589-1.943-3.021-3.992-3.021c-0.971,0-1.941,0.162-2.697,0.593
	c-0.756,0.486-1.295,1.241-1.348,2.481h2.643c0.107-0.809,0.646-1.187,1.402-1.187c0.539,0,1.348,0.27,1.348,0.971
	c0,0.54-0.27,0.701-0.754,0.809c-1.943,0.432-4.963,0.216-4.963,3.128c0,1.834,1.295,2.697,2.912,2.697
	c1.025,0,2.104-0.27,2.805-1.079c0.055,0.27,0.055,0.54,0.162,0.863h2.805c-0.322-0.755-0.322-1.564-0.322-2.319V11.323z
	 M108.428,16.016c-0.594,0-1.133-0.323-1.133-1.024c0-0.702,0.539-0.971,1.133-1.133c0.594-0.216,1.348-0.216,1.727-0.486
	C110.207,15.207,109.775,16.016,108.428,16.016z M123.424,17.58V7.979h3.506V5.228h-10.357v2.751h3.668v9.602H123.424z
	 M129.734,8.356c-2.482,0-4.586,1.996-4.586,4.747c0,3.021,1.889,4.801,4.693,4.801c1.889,0,3.723-0.917,4.207-2.967h-2.643
	c-0.215,0.647-0.863,0.971-1.564,0.971c-1.186,0-1.834-0.81-1.887-2.05h6.256C134.318,10.784,132.809,8.356,129.734,8.356z
	 M127.955,12.24c0.16-1.132,0.809-1.888,1.779-1.888s1.617,0.863,1.672,1.888H127.955z M139.498,15.584
	c-1.188,0-1.889-1.241-1.889-2.374c0-1.295,0.486-2.697,2.051-2.697c0.699,0,1.348,0.539,1.348,1.294h2.75
	c-0.215-2.374-2.104-3.56-4.207-3.56c-2.75,0-4.746,2.05-4.746,4.962c0,2.751,2.158,4.585,4.746,4.585
	c2.266,0,4.047-1.349,4.262-3.776h-2.697C140.953,14.991,140.469,15.584,139.498,15.584z M149.908,8.302
	c-1.025,0-2.158,0.54-2.59,1.457V5.174h-2.805V17.58h2.805v-4.909c0-1.025,0.432-1.942,1.51-1.942c1.512,0,1.512,1.241,1.512,2.481
	v4.369h2.805v-5.826C153.145,10.46,152.768,8.302,149.908,8.302z M160.211,8.302c-0.971,0-2.158,0.593-2.645,1.51h-0.053V8.572
	h-2.697v9.008h2.805v-4.909c0-0.971,0.432-1.942,1.51-1.942c1.512,0,1.402,1.241,1.402,2.481v4.369h2.752v-5.771
	C163.285,10.514,163.068,8.302,160.211,8.302z M165.012,17.58h2.805V8.572h-2.805V17.58z M165.012,7.493h2.805V5.228h-2.805V7.493z
	 M174.99,11.97l3.129-3.398h-3.291l-2.535,3.021V5.228h-2.805V17.58h2.805v-2.859l0.756-0.755l2.049,3.614h3.398L174.99,11.97z
	 M37.442,28.584l-1.888-5.124h-1.133v6.095h0.755v-5.07h0.054l1.888,5.07h0.701l1.888-5.07v5.07h0.755V23.46h-1.079L37.442,28.584z
	 M43.538,25.023c-1.402,0-2.104,1.025-2.104,2.319c0,1.295,0.701,2.266,2.104,2.266s2.158-0.971,2.158-2.266
	C45.695,26.049,44.94,25.023,43.538,25.023z M43.538,29.016c-0.755,0-1.349-0.594-1.349-1.673c0-1.078,0.593-1.672,1.349-1.672
	c0.755,0,1.402,0.594,1.402,1.672C44.94,28.422,44.292,29.016,43.538,29.016z M47.152,26.049v-0.917h-0.701v4.423h0.755v-1.996
	c0-1.133,0.432-1.779,1.564-1.779v-0.756C48.015,24.97,47.529,25.348,47.152,26.049z M50.927,25.023
	c-1.187,0-2.049,0.972-2.049,2.266c0.054,1.349,0.701,2.319,2.104,2.319c1.025,0,1.726-0.485,1.888-1.456h-0.701
	c-0.108,0.539-0.539,0.863-1.133,0.863c-0.971,0-1.402-0.701-1.402-1.457h3.291C52.977,26.48,52.492,25.023,50.927,25.023z
	 M49.633,26.912c0.054-0.701,0.54-1.241,1.294-1.241c0.702,0,1.241,0.54,1.241,1.241H49.633z M60.69,25.023
	c-0.593,0-1.133,0.271-1.402,0.756c-0.162-0.54-0.701-0.756-1.241-0.756c-0.593,0-1.079,0.271-1.402,0.756v-0.647h-0.701v4.423
	h0.755v-2.751c0-0.378,0.27-1.133,1.132-1.133c0.647,0,0.863,0.378,0.863,0.971v2.913h0.701v-2.751c0-0.701,0.485-1.133,1.133-1.133
	c0.755,0,0.863,0.432,0.863,0.971v2.913h0.755v-3.236C62.147,25.401,61.554,25.023,60.69,25.023z M65.06,25.023
	c-1.403,0-2.158,1.025-2.158,2.319c0,1.295,0.755,2.266,2.158,2.266c1.402,0,2.157-0.971,2.157-2.266
	C67.217,26.049,66.462,25.023,65.06,25.023z M65.06,29.016c-0.755,0-1.349-0.594-1.349-1.673c0-1.078,0.594-1.672,1.349-1.672
	c0.755,0,1.402,0.594,1.402,1.672C66.462,28.422,65.815,29.016,65.06,29.016z M70.184,25.023c-0.593,0-1.187,0.216-1.402,0.701
	h-0.054V23.46h-0.701v6.095h0.701v-0.593h0.054c0.323,0.485,0.971,0.646,1.402,0.646c1.349,0,1.996-1.024,1.996-2.266
	C72.18,26.103,71.533,25.023,70.184,25.023z M70.13,29.016c-1.025,0-1.403-0.81-1.403-1.673c0-0.862,0.377-1.672,1.349-1.672
	c0.917,0,1.349,0.81,1.349,1.618C71.425,28.152,71.101,29.016,70.13,29.016z M73.043,24.322h0.701V23.46h-0.701V24.322z
	 M73.043,29.555h0.701v-4.423h-0.701V29.555z M74.877,29.555h0.701V23.46h-0.701V29.555z M76.711,24.322h0.701V23.46h-0.701V24.322z
	 M76.711,29.555h0.701v-4.423h-0.701V29.555z M79.516,23.783h-0.755v1.349h-0.755v0.647h0.755v2.805
	c0,0.809,0.324,0.971,1.079,0.971h0.54v-0.647h-0.324c-0.485,0-0.54-0.054-0.54-0.432v-2.696h0.863v-0.647h-0.863V23.783z
	 M82.752,28.745l-1.294-3.613h-0.809l1.726,4.369l-0.27,0.755c-0.162,0.27-0.324,0.378-0.593,0.378
	c-0.162,0-0.324-0.055-0.432-0.055v0.647c0.162,0.055,0.324,0.055,0.485,0.055c0.647,0,0.971-0.324,1.294-1.187l1.888-4.963h-0.755
	L82.752,28.745z M87.93,24.484v0.647h-0.755v0.647h0.755v3.775h0.755v-3.775h0.809v-0.647h-0.809v-0.647
	c0-0.378,0.162-0.485,0.54-0.485c0.108,0,0.27,0.054,0.377,0.054V23.46c-0.108-0.055-0.324-0.108-0.432-0.108
	C88.362,23.352,87.93,23.729,87.93,24.484z M92.029,25.023c-1.402,0-2.157,1.025-2.157,2.319c0,1.295,0.755,2.266,2.157,2.266
	c1.35,0,2.104-0.971,2.104-2.266C94.133,26.049,93.379,25.023,92.029,25.023z M92.029,29.016c-0.808,0-1.402-0.594-1.402-1.673
	c0-1.078,0.594-1.672,1.402-1.672c0.756,0,1.35,0.594,1.35,1.672C93.379,28.422,92.785,29.016,92.029,29.016z M95.59,26.049v-0.917
	h-0.701v4.423h0.756v-1.996c0-1.133,0.432-1.779,1.564-1.779v-0.756C96.453,24.97,95.967,25.348,95.59,26.049z M101.037,23.783
	h-0.754v1.349h-0.701v0.647h0.701v2.805c0,0.809,0.322,0.971,1.078,0.971h0.539v-0.647h-0.322c-0.432,0-0.541-0.054-0.541-0.432
	v-2.696h0.863v-0.647h-0.863V23.783z M104.76,25.023c-0.486,0-1.133,0.216-1.348,0.756h-0.055V23.46h-0.701v6.095h0.701V27.02
	c0-0.755,0.432-1.349,1.348-1.349c0.541,0,0.863,0.324,0.863,0.863v3.021h0.756v-2.913C106.324,25.671,105.947,25.023,104.76,25.023
	z M109.184,25.023c-1.242,0-2.104,0.972-2.104,2.266c0.053,1.349,0.701,2.319,2.156,2.319c0.971,0,1.672-0.485,1.834-1.456h-0.701
	c-0.107,0.539-0.539,0.863-1.133,0.863c-0.971,0-1.402-0.701-1.348-1.457h3.289C111.232,26.48,110.748,25.023,109.184,25.023z
	 M107.889,26.912c0.053-0.701,0.484-1.241,1.24-1.241c0.701,0,1.24,0.54,1.295,1.241H107.889z M118.191,28.745l-0.918-3.613h-0.809
	l-0.863,3.613h-0.055l-0.971-3.613h-0.809l1.402,4.423h0.809l0.863-3.506l0.918,3.506h0.754l1.404-4.423h-0.703L118.191,28.745z
	 M122.451,25.023c-1.402,0-2.104,1.025-2.104,2.319c0,1.295,0.701,2.266,2.104,2.266c1.404,0,2.158-0.971,2.158-2.266
	C124.609,26.049,123.855,25.023,122.451,25.023z M122.451,29.016c-0.754,0-1.348-0.594-1.348-1.673c0-1.078,0.594-1.672,1.348-1.672
	c0.756,0,1.404,0.594,1.404,1.672C123.855,28.422,123.207,29.016,122.451,29.016z M126.066,26.049v-0.917h-0.701v4.423h0.754v-1.996
	c0-1.133,0.432-1.779,1.564-1.779v-0.756C126.93,24.97,126.443,25.348,126.066,26.049z M128.225,29.555h0.754V23.46h-0.754V29.555z
	 M133.24,25.725c-0.324-0.539-0.971-0.701-1.457-0.701c-1.348,0-1.994,1.025-1.994,2.266c0,1.295,0.646,2.319,1.994,2.319
	c0.648,0,1.188-0.216,1.457-0.701v0.647h0.701V23.46h-0.701V25.725z M131.893,29.016c-0.918,0-1.35-0.81-1.35-1.673
	c0-0.862,0.324-1.672,1.35-1.672c0.971,0,1.348,0.81,1.348,1.672C133.24,28.152,132.863,29.016,131.893,29.016z"/>
</svg>
