<?xml version="1.0" encoding="UTF-8"?><svg xmlns="http://www.w3.org/2000/svg" viewBox="0 0 1024 1024"><defs><style>.cls-1{fill:#007aff;}.cls-2{fill:#fff;}</style></defs><g id="Layer_2"><g><rect class="cls-2" x=".5" y=".5" width="1023" height="1023"/><path d="M1023,1V1023H1V1H1023m1-1H0V1024H1024V0h0Z"/></g></g><g id="Layer_1"><path class="cls-1" d="M318.4,807c38.14,0,115.25-37.05,173.43-78.48,193.74,3.57,338.63-108.4,338.63-255.48S688.59,217,511.86,217,193.54,331.16,193.54,473.03c0,90.28,55.98,170.69,141.87,212.67-11.8,22.23-32.66,52.69-44.46,68.61-17.56,23.33-5.49,52.69,27.44,52.69Zm33.2-56.8c-3.57,1.37-4.94-.55-2.47-3.57,13.99-17.01,34.58-44.18,44.73-63.39,8.23-15.09,5.49-28.26-12.07-36.5-83.7-39.24-132.27-102.08-132.27-173.71,0-110.32,116.35-200.05,262.34-200.05s262.35,89.73,262.35,200.05-116.35,200.33-262.35,200.33c-4.94,0-12.62-.27-21.95-.27-11.8-.27-20.58,3.29-31.56,11.8-33.2,24.7-82.32,55.43-106.75,65.31Z"/></g></svg>